<svg xmlns="http://www.w3.org/2000/svg" viewBox="0 0 511.05 475.13"><defs><style>.cls-1{fill:#0c569a;}.cls-2{fill:#706f6f;}.cls-3{fill:none;}.cls-4,.cls-5{fill:#1d1d1b;}.cls-4{stroke:#706f6f;stroke-miterlimit:10;stroke-width:0.5px;}</style></defs><g id="LM_Group_-_copie_2" data-name="LM Group - copie 2"><polygon class="cls-1" points="104.25 100.9 255.91 188.22 406.8 100.9 406.8 355.2 352.42 388.13 352.42 196.64 255.91 252.56 104.25 165.24 104.25 100.9"/><polygon class="cls-2" points="104.25 196.64 255.53 283.96 326.38 244.9 326.38 308.47 255.91 349.07 104.25 260.99 104.25 196.64"/><polygon class="cls-3" points="104.25 291.62 160.16 324.56 160.16 388.13 104.25 355.2 104.25 291.62"/><path class="cls-2" d="M562.74,103.76c-141.12,0-255.52,114.4-255.52,255.52A254.87,254.87,0,0,0,392.6,549.91l2.65-14.55.54-3q-1.57-1.5-3.12-3a240.66,240.66,0,1,1,340.15,0c-2.34,2.34-4.72,4.63-7.14,6.84a17.69,17.69,0,0,1,8,13,254.93,254.93,0,0,0,84.57-189.92C818.27,218.16,703.87,103.76,562.74,103.76Z" transform="translate(-307.22 -103.76)"/><path class="cls-4" d="M417.52,561.19l1.62-8.92,6.62-36.57H406.88l-4.2,23.11-3.11,17.11-3.89,21.38h44.16l1.86-10.12,1.1-6Z" transform="translate(-307.22 -103.76)"/><path class="cls-5" d="M507.2,515.7l-23.44,32.73L471.6,515.7H456.24l-9.84,54.15q7.17,4,14.64,7.45h1.2l5-27.72,8.64,22.17h8.32L500,549.22l-5,28.08h17.2l11-61.6Z" transform="translate(-307.22 -103.76)"/><path class="cls-1" d="M561.14,567.46a10.12,10.12,0,0,1-4.3.93c-5.05,0-8.35-3.85-8.35-9.62,0-5.94,3.3-9.63,8.5-9.63,3.1,0,5.65,1.43,7.85,4.24l7.55-7.32c-3.55-4.78-9.1-7.42-16-7.42-11.55,0-19.8,8.3-19.8,20.13s8.25,20.12,19.55,20.12A26.43,26.43,0,0,0,571.39,574V557.72H561.14Z" transform="translate(-307.22 -103.76)"/><path class="cls-1" d="M602.64,566.14c4.2-2.37,6.6-6.55,6.6-12.1,0-8.91-6.2-14.52-16-14.52H576.44V578h11.8v-9.67h3.2l5.95,9.67H610Zm-10.1-7.59h-4.3v-9h4.3c3.25,0,4.8,1.7,4.8,4.51S595.79,558.55,592.54,558.55Z" transform="translate(-307.22 -103.76)"/><path class="cls-1" d="M632,538.64c-11.4,0-19.75,8.47-19.75,20.13s8.35,20.12,19.75,20.12,19.75-8.46,19.75-20.12S643.44,538.64,632,538.64Zm0,29.75c-4.35,0-7.85-3.63-7.85-9.62s3.5-9.63,7.85-9.63,7.85,3.63,7.85,9.63S636.39,568.39,632,568.39Z" transform="translate(-307.22 -103.76)"/><path class="cls-1" d="M678.29,539.52v20.79c0,5.88-2,8.08-5.35,8.08s-5.35-2.2-5.35-8.08V539.52h-11.8v21.17c0,8.17,3.16,13.89,8.81,16.54a236.19,236.19,0,0,0,25.15-13.64c.09-.93.14-1.9.14-2.9V539.52Z" transform="translate(-307.22 -103.76)"/><path class="cls-1" d="M720.2,541.11a19.34,19.34,0,0,0-8.06-1.59H695.29V578h11.8v-9.45h5c9.72,0,15.92-5.58,16-14.45V554C728.09,547.93,725.18,543.37,720.2,541.11Zm-13.11,17.44v-9h4.3c3.25,0,4.8,1.7,4.8,4.51s-1.55,4.51-4.8,4.51Z" transform="translate(-307.22 -103.76)"/></g></svg>